<?xml version="1.0" encoding="UTF-8"?>
<svg
   width="24"
   height="24"
   id="svg4460"
   version="1.1"
   inkscape:version="1.1.2 (08b2f3d93c, 2022-04-05)"
   sodipodi:docname="truck.svg"
   inkscape:export-filename="/home/peterk/Documents/quell/graphhopper/web/src/main/webapp/img/truck.png"
   inkscape:export-xdpi="180"
   inkscape:export-ydpi="180"
   xmlns:inkscape="http://www.inkscape.org/namespaces/inkscape"
   xmlns:sodipodi="http://sodipodi.sourceforge.net/DTD/sodipodi-0.dtd"
   xmlns="http://www.w3.org/2000/svg"
   xmlns:svg="http://www.w3.org/2000/svg"
   xmlns:rdf="http://www.w3.org/1999/02/22-rdf-syntax-ns#"
   xmlns:cc="http://creativecommons.org/ns#"
   xmlns:dc="http://purl.org/dc/elements/1.1/">
  <!-- Generator: Adobe Illustrator 29.0.0, SVG Export Plug-In . SVG Version: 2.1.0 Build 186)  -->
  <defs>
    <style>
      .st0 {
        fill: #fff;
        fill-opacity: 0;
        stroke-width: .9px;
      }

      .st0, .st1, .st2 {
        stroke: #000;
      }

      .st3 {
        font-family: ArialRoundedMTBold, 'Arial Rounded MT Bold';
        font-size: 6px;
      }

      .st1 {
        stroke-width: .4px;
      }

      .st1, .st2 {
        fill: none;
        stroke-linecap: round;
        stroke-linejoin: round;
      }

      .st2 {
        stroke-width: 1.2px;
      }
    </style>
  </defs>
  <g id="svg4460">
    <sodipodi:namedview id="base" bordercolor="#666666" borderopacity="1.0" inkscape:current-layer="layer1" inkscape:cx="8.3729638" inkscape:cy="9.4801326" inkscape:document-units="px" inkscape:guide-bbox="true" inkscape:pagecheckerboard="0" inkscape:pageopacity="0.0" inkscape:pageshadow="2" inkscape:snap-global="false" inkscape:window-height="958" inkscape:window-maximized="1" inkscape:window-width="1920" inkscape:window-x="0" inkscape:window-y="0" inkscape:zoom="21.676912" pagecolor="#ffffff" showgrid="true" showguides="true">
      <inkscape:grid id="grid4468" empspacing="5" enabled="true" snapvisiblegridlinesonly="true" type="xygrid" visible="true"/>
      <sodipodi:guide id="guide4470" orientation="1,0" position="0,20"/>
      <sodipodi:guide id="guide4472" orientation="0,1" position="4,24"/>
      <sodipodi:guide id="guide4474" orientation="1,0" position="24,13"/>
      <sodipodi:guide id="guide4476" orientation="0,1" position="15,0"/>
      <sodipodi:guide id="guide4478" orientation="1,0" position="23,20"/>
      <sodipodi:guide id="guide4480" orientation="0,1" position="20,23"/>
      <sodipodi:guide id="guide4482" orientation="1,0" position="2,5"/>
      <sodipodi:guide id="guide4484" orientation="0,1" position="7,2"/>
    </sodipodi:namedview>
    <g id="layer1" inkscape:groupmode="layer" inkscape:label="Layer 1">
      <rect id="rect3841-0" x="6.4" y="13.2" width="7.3" height="2.8" rx=".7" ry=".7"/>
      <path id="rect3841" d="M1.4,11.5s0,0,0,0v4.4s0,0,0,0h2s0,0,0,0c0-.8.7-1.5,1.5-1.5.8,0,1.5.7,1.5,1.5,0,0,0,0,0,0h2s0,0,0,0v-4.4s0,0,0,0H1.4Z"/>
      <path id="path3839" class="st2" d="M1.2,15.4h1.7l.5-1.6,1-.6,2.1-.2h1.4c0,.1,0-5.5,0-5.5-1.2,0-6.1,0-6.6,0,0,3,0,5.6,0,7.8h0Z" inkscape:connector-curvature="0" sodipodi:nodetypes="cccccccccc"/>
      <path id="path3037-4-7-6-8" class="st1" d="M23.8,11.8"/>
      <rect id="rect3841-8" x="5.5" y="7.8" width="2.3" height="4.5" rx="0" ry="0"/>
      <path id="rect1311-6" d="M10,6.1c-.6,0-1.1.5-1.1,1.2v7.6c0,.6.5,1.2,1.1,1.2h4.6s0,0,0,0c0-.8.7-1.5,1.5-1.5.8,0,1.5.7,1.5,1.5,0,0,0,0,0,0h1.5c0-.8.7-1.5,1.5-1.5.8,0,1.5.7,1.5,1.5.6,0,1.1-.5,1.1-1.1v-7.6c0-.6-.5-1.2-1.1-1.2h-12.1Z"/>
      <circle id="path3037-4-7-6-4-3" class="st0" cx="16.3" cy="15.9" r="1.5" transform="translate(.3 32.2) rotate(-89.9)"/>
      <circle id="path3037-4-7-6-4-3-1" class="st0" cx="4.9" cy="15.9" r="1.5"/>
      <circle id="path3037-4-7-6-4-3-5" class="st0" cx="20.7" cy="15.9" r="1.5"/>
    </g>
  </g>
  <g id="Layer_2">
    <text class="st3" transform="translate(16.1 22.8)"><tspan x="0" y="0">EL</tspan></text>
  </g>
</svg>